<svg width="122" height="53" viewBox="0 0 122 53" fill="none" xmlns="http://www.w3.org/2000/svg">
<path d="M64.8965 0.757935C62.8161 4.82953 56.7593 14.0274 57.1092 19.0515C57.154 19.6941 57.8642 20.0716 58.4157 19.7443C62.6351 17.2366 70.0845 0.757935 70.0845 0.757935H76.2826C76.2826 0.757935 61.3665 30.6048 53.512 46.3214C51.0697 44.3834 50.3148 41.822 50.7319 39.2744C51.6075 33.9403 55.7751 29.9519 58.3416 25.3694C57.2764 25.5599 51.1266 29.7752 49.9924 24.3545C48.436 16.9092 58.0072 0.757935 58.0072 0.757935H64.8965Z" fill="white"/>
<path d="M44.1463 30.9823C44.1463 30.9823 39.8838 34.6728 37.8965 34.4771C41.2403 32.0439 47.1092 27.1687 45.5028 22.4927C44.4134 19.6888 40.4147 19.2541 37.862 20.7089C33.9374 22.9464 32.4792 26.1729 29.5129 32.4491C29.3112 32.8752 27.9737 33.0033 28.0168 31.862C28.0857 30.0263 30.5126 28.7793 30.8418 24.5675C31.0676 21.6735 28.508 19.4325 24.7988 20.0733C27.3015 14.7409 27.217 14.9383 27.217 14.9383H40.3113C40.3113 14.9383 42.6743 15.0405 42.7243 13.0367C42.7743 11.0087 40.7904 10.9308 40.7904 10.9308L29.4387 10.3454L31.5605 6.021H26.2639L24.261 10.0268L1.62665 8.80236V14.9383H12.6457C12.6457 14.9383 7.65755 23.6461 4.82911 28.4936C1.71111 33.8381 -3.06156 40.7118 2.70907 46.3196C6.56995 38.592 18.3939 14.9366 18.3939 14.9366H21.8066L8.69516 41.1725H15.1863C15.1863 41.1725 21.7394 26.7496 24.4489 27.9203C24.6437 28.0035 24.6937 28.258 24.5592 28.4226C22.334 31.1728 20.5674 34.2728 20.395 36.5727C20.214 38.973 21.9014 41.221 23.6181 41.5916C27.4135 42.4108 29.9472 38.3773 30.0575 38.5106C32.1776 40.9006 35.3645 42.3207 38.9255 41.2608C43.0604 40.0295 46.6696 34.3334 46.6696 34.3334L44.1463 30.9823ZM36.0091 30.5129C34.8164 29.7509 39.7373 23.8626 40.9576 24.661C41.8435 25.2411 36.8175 31.029 36.0091 30.5129Z" fill="white"/>
<path d="M108.864 21.3878C100.32 14.2923 94.2341 35.5803 92.4984 31.2368C91.5728 28.9179 96.1938 24.874 97.4227 22.3005C97.9381 21.2215 97.6744 19.9347 95.1717 19.9572C91.5315 19.9902 86.8433 20.0005 86.8433 20.0005C86.8433 20.0005 82.9083 28.904 78.8681 31.7685C77.9426 32.037 78.9354 30.4852 79.0508 30.0661C80.478 26.6232 83.6425 19.9347 83.6425 19.9347H78.0339C78.0339 19.9347 77.8943 20.3556 77.3358 21.6666C73.818 18.1319 68.6196 21.8034 66.0635 25.4299C63.5177 29.0408 60.217 34.1083 62.4094 38.1019C66.634 45.8018 72.3167 38.5453 72.3167 38.5453C72.3167 38.5453 73.1337 41.6973 76.5826 41.699C81.4242 41.7007 84.2475 28.0069 89.3235 26.6976C89.601 26.6266 89.8061 26.9557 89.6234 27.1774C87.2759 30.0072 84.6956 33.3722 85.1265 37.0732C85.5678 40.8712 88.198 42.726 91.2609 41.1275C93.0258 40.2079 94.3737 38.5435 94.9097 37.9824C96.1973 42.629 100.539 42.6498 103.776 39.2363C109.681 46.013 113.861 36.4341 113.861 36.4341L110.919 32.0214C110.919 32.0214 108.464 35.563 107.496 35.4643C110.796 28.8607 122.212 6.021 122.212 6.021C114.831 6.021 112.887 10.413 108.864 21.386V21.3878ZM68.5661 33.3497C67.644 32.7539 72.3512 25.1546 73.4388 26.1279C74.3437 26.9366 70.1915 34.4027 68.5661 33.3497ZM100.939 33.871C99.5704 32.9947 103.692 25.5373 104.874 26.1781C106.215 26.9055 101.961 34.5256 100.939 33.871Z" fill="white"/>
<path d="M119.056 38.8345C119.056 40.1316 118.066 41.1708 116.798 41.1708C115.529 41.1708 114.518 40.1299 114.518 38.8345C114.518 37.5391 115.522 36.5138 116.798 36.5138C118.073 36.5138 119.056 37.5546 119.056 38.8345ZM114.893 38.857C114.893 39.9792 115.719 40.8625 116.798 40.8625C117.877 40.8625 118.68 39.981 118.68 38.8345C118.68 37.688 117.854 36.8221 116.798 36.8221C115.741 36.8221 114.893 37.7105 114.893 38.857ZM117.713 37.9755C117.615 37.9235 117.337 37.8023 116.986 37.8023C116.281 37.8023 115.936 38.2543 115.936 38.857C115.936 39.4597 116.303 39.9204 116.994 39.9204C117.294 39.9204 117.579 39.8372 117.751 39.7247L117.841 40.0104C117.579 40.1836 117.232 40.2442 116.919 40.2442C116.048 40.2442 115.547 39.6415 115.547 38.8795C115.547 38.0205 116.222 37.4784 116.979 37.4784C117.368 37.4784 117.706 37.591 117.804 37.6811L117.715 37.9755H117.713Z" fill="white"/>
<path d="M114.487 50.1627C114.487 51.5014 113.137 52.8367 111.494 52.809C111.494 52.809 78.0892 53.2194 68.1406 52.6271C48.7259 51.4703 31.9 51.2971 8.70201 51.1984C8.409 51.1984 8.36073 52.2444 7.47825 52.2981C6.44581 52.3587 6.01318 51.6313 6.01318 51.1533V49.1807C6.01318 48.7027 6.44409 47.9979 7.47997 48.0308C8.32282 48.0585 8.409 49.1634 8.70201 49.1582C31.7156 48.7426 47.5866 48.772 68.1406 47.6983C78.0944 47.1787 111.494 47.5147 111.494 47.5147C113.139 47.487 114.487 48.824 114.487 50.1627Z" fill="white"/>
</svg>
